<svg width="191" height="47" viewBox="0 0 191 47" fill="none" xmlns="http://www.w3.org/2000/svg">
  <mask id="path-1-inside-1_1_46" fill="#000000">
  <path d="M26 0C33.732 0 40 6.26801 40 14C40 15.8169 39.6533 17.5526 39.0234 19.1455C45.7966 20.1261 51 25.9552 51 33C51 40.732 44.732 47 37 47C32.236 47 28.0288 44.6198 25.5 40.9844C22.9712 44.6198 18.764 47 14 47C6.26801 47 0 40.732 0 33C0 25.6265 5.70033 19.5844 12.9346 19.04C12.3309 17.4762 12 15.7767 12 14C12 6.26801 18.268 0 26 0Z"/>
  </mask>
  <path d="M26 0C33.732 0 40 6.26801 40 14C40 15.8169 39.6533 17.5526 39.0234 19.1455C45.7966 20.1261 51 25.9552 51 33C51 40.732 44.732 47 37 47C32.236 47 28.0288 44.6198 25.5 40.9844C22.9712 44.6198 18.764 47 14 47C6.26801 47 0 40.732 0 33C0 25.6265 5.70033 19.5844 12.9346 19.04C12.3309 17.4762 12 15.7767 12 14C12 6.26801 18.268 0 26 0Z" fill="#000000"/>
  <path d="M39.0234 19.1455L37.1636 18.4101C36.9387 18.9788 36.9864 19.6192 37.293 20.1483C37.5997 20.6775 38.1316 21.0372 38.7369 21.1249L39.0234 19.1455ZM25.5 40.9844L27.1419 39.8423C26.768 39.3048 26.1547 38.9844 25.5 38.9844C24.8453 38.9844 24.232 39.3048 23.8581 39.8423L25.5 40.9844ZM12.9346 19.04L13.0846 21.0344C13.7157 20.9869 14.2871 20.6435 14.6252 20.1086C14.9633 19.5736 15.0283 18.9102 14.8004 18.3198L12.9346 19.04ZM26 0V2C32.6274 2 38 7.37258 38 14H40H42C42 5.16344 34.8366 -2 26 -2V0ZM40 14H38C38 15.5605 37.7025 17.047 37.1636 18.4101L39.0234 19.1455L40.8833 19.8809C41.604 18.0583 42 16.0732 42 14H40ZM39.0234 19.1455L38.7369 21.1249C44.5406 21.9651 49 26.9634 49 33H51H53C53 24.947 47.0525 18.287 39.31 17.1661L39.0234 19.1455ZM51 33H49C49 39.6274 43.6274 45 37 45V47V49C45.8366 49 53 41.8366 53 33H51ZM37 47V45C32.9186 45 29.313 42.9636 27.1419 39.8423L25.5 40.9844L23.8581 42.1264C26.7445 46.276 31.5533 49 37 49V47ZM25.5 40.9844L23.8581 39.8423C21.687 42.9636 18.0814 45 14 45V47V49C19.4467 49 24.2555 46.276 27.1419 42.1264L25.5 40.9844ZM14 47V45C7.37258 45 2 39.6274 2 33H0H-2C-2 41.8366 5.16344 49 14 49V47ZM0 33H2C2 26.6808 6.88587 21.5009 13.0846 21.0344L12.9346 19.04L12.7845 17.0457C4.51479 17.668 -2 24.5722 -2 33H0ZM12.9346 19.04L14.8004 18.3198C14.284 16.9821 14 15.5266 14 14H12H10C10 16.0269 10.3778 17.9703 11.0688 19.7603L12.9346 19.04ZM12 14H14C14 7.37258 19.3726 2 26 2V0V-2C17.1634 -2 10 5.16344 10 14H12Z" fill="#000000" mask="url(#path-1-inside-1_1_46)"/>
  <path d="M72.3906 14.3906C71.151 13.2656 69.5104 12.7031 67.4688 12.7031C66.3958 12.7031 65.4219 12.974 64.5469 13.5156C63.6719 14.0573 62.9635 14.7812 62.4219 15.6875C61.2969 17.5729 60.7344 19.8125 60.7344 22.4062C60.7344 24.9896 61.2396 27.2031 62.25 29.0469C62.7396 29.9531 63.3906 30.6667 64.2031 31.1875C65.0156 31.7083 65.8906 31.9688 66.8281 31.9688C67.776 31.9688 68.5625 31.8542 69.1875 31.625C69.8125 31.3854 70.4948 31.0469 71.2344 30.6094V24.2344H66.0625V21.8438H73.9375V31.9375C72.7188 32.7188 71.5625 33.3229 70.4688 33.75C69.375 34.1771 68.1042 34.3906 66.6562 34.3906C65.2188 34.3906 63.9115 34.0729 62.7344 33.4375C61.5677 32.7917 60.6198 31.9115 59.8906 30.7969C58.4115 28.5365 57.6719 25.6979 57.6719 22.2812C57.6719 20.5104 57.9115 18.875 58.3906 17.375C58.8802 15.875 59.5521 14.6146 60.4062 13.5938C61.2604 12.5625 62.276 11.7604 63.4531 11.1875C64.6302 10.6146 65.8958 10.3281 67.25 10.3281C69.8333 10.3281 71.8958 10.9896 73.4375 12.3125L72.3906 14.3906ZM88.4844 30.1719V25.7969L86.1562 26.125C84.5312 26.3542 83.4062 26.5833 82.7812 26.8125C81.3854 27.3438 80.6875 28.2344 80.6875 29.4844C80.6875 30.349 80.9375 31.0365 81.4375 31.5469C81.9375 32.0573 82.625 32.3125 83.5 32.3125C85.4271 32.3125 87.0885 31.599 88.4844 30.1719ZM88.4844 22.1875C88.4844 19.7396 87.4479 18.5156 85.375 18.5156C84.3958 18.5156 83.3125 18.6302 82.125 18.8594C80.9479 19.0885 80.1198 19.3073 79.6406 19.5156L78.9688 17.4219C81.125 16.7031 83.151 16.3438 85.0469 16.3438C86.9427 16.3438 88.4635 16.776 89.6094 17.6406C90.7552 18.5052 91.3281 19.8385 91.3281 21.6406V34H88.9688L88.5938 32.0156C87.9271 32.6927 87.0677 33.2604 86.0156 33.7188C84.974 34.1667 83.9531 34.3906 82.9531 34.3906C81.5052 34.3906 80.3021 33.9583 79.3438 33.0938C78.3854 32.2188 77.9062 30.9896 77.9062 29.4062C77.9062 27.8125 78.5312 26.6458 79.7812 25.9062C80.625 25.3854 81.5208 25.0312 82.4688 24.8438C83.4271 24.6458 84.6719 24.4531 86.2031 24.2656L88.4844 24V22.1875ZM106.125 24.2656C107.604 24.6302 108.682 25.2083 109.359 26C110.047 26.7917 110.391 27.9375 110.391 29.4375C110.391 30.9271 109.818 32.125 108.672 33.0312C107.536 33.9375 106.109 34.3906 104.391 34.3906C103.161 34.3906 101.969 34.2396 100.812 33.9375C99.6562 33.625 98.8021 33.2604 98.25 32.8438L98.9531 30.7969C99.3906 31.0677 100.083 31.3438 101.031 31.625C101.979 31.8958 103.005 32.0312 104.109 32.0312C105.224 32.0312 106.109 31.8021 106.766 31.3438C107.432 30.875 107.766 30.2552 107.766 29.4844C107.766 28.7135 107.599 28.1094 107.266 27.6719C106.943 27.224 106.312 26.8854 105.375 26.6562L102.469 25.9531C100.792 25.5365 99.6771 24.9323 99.125 24.1406C98.5729 23.3385 98.2969 22.3438 98.2969 21.1562C98.2969 19.9688 98.776 18.875 99.7344 17.875C100.703 16.875 102.109 16.3646 103.953 16.3438H104.156C106.229 16.3438 107.995 16.7344 109.453 17.5156L108.828 19.5156C107.307 18.8698 105.766 18.5469 104.203 18.5469C103.234 18.5573 102.438 18.8021 101.812 19.2812C101.198 19.75 100.891 20.3438 100.891 21.0625C100.891 21.7812 101.047 22.3229 101.359 22.6875C101.672 23.0417 102.266 23.3229 103.141 23.5312L106.125 24.2656ZM118.953 25.3281C118.953 29.9115 120.557 32.2031 123.766 32.2031C126.651 32.2031 128.094 29.9115 128.094 25.3281C128.094 22.7865 127.703 21.0208 126.922 20.0312C126.151 19.0312 125.083 18.5312 123.719 18.5312C121.052 18.5312 119.51 20.0729 119.094 23.1562C119 23.8021 118.953 24.526 118.953 25.3281ZM123.875 34.3906C122.771 34.3906 121.792 34.1354 120.938 33.625C120.083 33.1146 119.432 32.4583 118.984 31.6562V40.5781L116.141 40.8906V16.8594H118.984V19.2188C119.484 18.3646 120.151 17.6719 120.984 17.1406C121.818 16.6094 122.76 16.3438 123.812 16.3438C126.635 16.3438 128.641 17.5104 129.828 19.8438C130.578 21.3229 130.953 23.0833 130.953 25.125C130.953 28.3854 130.167 30.8646 128.594 32.5625C127.469 33.7812 125.896 34.3906 123.875 34.3906ZM146.141 30.1719V25.7969L143.812 26.125C142.188 26.3542 141.062 26.5833 140.438 26.8125C139.042 27.3438 138.344 28.2344 138.344 29.4844C138.344 30.349 138.594 31.0365 139.094 31.5469C139.594 32.0573 140.281 32.3125 141.156 32.3125C143.083 32.3125 144.745 31.599 146.141 30.1719ZM146.141 22.1875C146.141 19.7396 145.104 18.5156 143.031 18.5156C142.052 18.5156 140.969 18.6302 139.781 18.8594C138.604 19.0885 137.776 19.3073 137.297 19.5156L136.625 17.4219C138.781 16.7031 140.807 16.3438 142.703 16.3438C144.599 16.3438 146.12 16.776 147.266 17.6406C148.411 18.5052 148.984 19.8385 148.984 21.6406V34H146.625L146.25 32.0156C145.583 32.6927 144.724 33.2604 143.672 33.7188C142.63 34.1667 141.609 34.3906 140.609 34.3906C139.161 34.3906 137.958 33.9583 137 33.0938C136.042 32.2188 135.562 30.9896 135.562 29.4062C135.562 27.8125 136.188 26.6458 137.438 25.9062C138.281 25.3854 139.177 25.0312 140.125 24.8438C141.083 24.6458 142.328 24.4531 143.859 24.2656L146.141 24V22.1875ZM160.578 34H157.734V16.8594H160.062L160.297 20.0312C160.995 18.8229 161.911 17.9062 163.047 17.2812C164.182 16.6562 165.469 16.3438 166.906 16.3438H168.281V18.9844H166.5C164.677 18.9844 163.234 19.4427 162.172 20.3594C161.109 21.2656 160.578 22.6354 160.578 24.4688V34ZM185.031 25.3281C185.031 22.6615 184.635 20.8646 183.844 19.9375C183.052 19 181.927 18.5312 180.469 18.5312C178.448 18.5312 177.141 19.5312 176.547 21.5312C176.224 22.625 176.062 23.9427 176.062 25.4844C176.062 29.9635 177.531 32.2031 180.469 32.2031C183.51 32.2031 185.031 29.9115 185.031 25.3281ZM185.031 19.2188V9.85938L187.875 9.54688V34H185.031V31.3438C183.875 33.375 182.24 34.3906 180.125 34.3906C177.708 34.3906 175.948 33.526 174.844 31.7969C173.75 30.0677 173.203 27.8958 173.203 25.2812C173.203 22.1354 174.005 19.7396 175.609 18.0938C176.734 16.9271 178.245 16.3438 180.141 16.3438C181.432 16.3438 182.479 16.6094 183.281 17.1406C184.094 17.6719 184.677 18.3646 185.031 19.2188Z" fill="#000000"/>
</svg>
